<?xml version="1.0" encoding="utf-8"?>
<!-- Generator: Adobe Illustrator 24.0.0, SVG Export Plug-In . SVG Version: 6.00 Build 0)  -->
<svg version="1.1" id="Calque_1" xmlns="http://www.w3.org/2000/svg" xmlns:xlink="http://www.w3.org/1999/xlink" x="0px" y="0px"
	 viewBox="0 0 200 200" style="enable-background:new 0 0 200 200;" xml:space="preserve">
<style type="text/css">
	.st0{display:none;}
	.st1{display:inline;fill:none;stroke:#000000;stroke-width:0.1;stroke-miterlimit:10;}
	.st2{fill:#3C3C3B;}
	.st3{fill:none;stroke:#3C3C3B;stroke-width:17;stroke-miterlimit:10;}
</style>
<g class="st0">
	<rect class="st1" width="200" height="200"/>
	<circle class="st1" cx="100" cy="100" r="100"/>
	<line class="st1" x1="0" y1="0" x2="200" y2="200"/>
	<line class="st1" x1="200" y1="0" x2="0" y2="200"/>
	<rect y="50" class="st1" width="200" height="100"/>
	<line class="st1" x1="0" y1="100" x2="200" y2="100"/>
	<rect x="50" class="st1" width="100" height="200"/>
	<line class="st1" x1="100" y1="0" x2="100" y2="200"/>
	<rect x="29.3" y="29.3" class="st1" width="141.4" height="141.4"/>
	<circle class="st1" cx="100" cy="100" r="70.7"/>
</g>
<g>
	<path class="st2" d="M44.5,100.9l-0.1-0.1l-0.1,0.1l63.6,63.6l-14,14L16,100.7l-0.1,0.1L30,115l0.1,0.1l63.6,63.6l14.2-14.2
		l0.1-0.1L44.5,100.9z M30.3,86.7l-0.1-0.1L30,86.7l0.1,0.1L30.3,86.7z"/>
	<polygon class="st2" points="107.8,164.5 93.8,178.5 16.2,100.9 93.8,23.2 107.8,37.2 44.2,100.9 	"/>
</g>
<line class="st3" x1="44.5" y1="100.9" x2="170.7" y2="100"/>
</svg>
