<?xml version="1.0" encoding="utf-8"?>
<!-- Generator: Adobe Illustrator 24.0.0, SVG Export Plug-In . SVG Version: 6.00 Build 0)  -->
<svg version="1.1" id="Calque_1" xmlns="http://www.w3.org/2000/svg" xmlns:xlink="http://www.w3.org/1999/xlink" x="0px" y="0px"
	 viewBox="0 0 25 25" style="enable-background:new 0 0 25 25;" xml:space="preserve">
<style type="text/css">
	.st0{fill:none;stroke:#1A1A1A;stroke-miterlimit:10;}
	.st1{fill:#686868;}
	.st2{fill:#FF0000;}
</style>
<ellipse class="st0" cx="12.9" cy="11" rx="4.7" ry="6.2"/>
<path class="st1" d="M17.3,18.8H8.5c-0.5,0-0.9-0.4-0.9-0.9v-7.7c0-0.5,0.4-0.9,0.9-0.9h8.8c0.5,0,0.9,0.4,0.9,0.9v7.7
	C18.2,18.4,17.8,18.8,17.3,18.8z"/>
<path class="st2" d="M18.7,18.2l-0.7,0.7c-0.2,0.2-0.4,0.1-0.6,0L6.9,7.4C6.7,7.2,6.7,7,6.9,6.8l0.7-0.7C7.8,6,8,6,8.2,6.2
	l10.5,11.5C18.9,17.8,18.8,18,18.7,18.2z"/>
</svg>
