<?xml version="1.0" encoding="utf-8"?>
<!-- Generator: Adobe Illustrator 24.0.0, SVG Export Plug-In . SVG Version: 6.00 Build 0)  -->
<svg version="1.1" id="Calque_1" xmlns="http://www.w3.org/2000/svg" xmlns:xlink="http://www.w3.org/1999/xlink" x="0px" y="0px"
	 viewBox="0 0 200 200" style="enable-background:new 0 0 200 200;" xml:space="preserve">
<style type="text/css">
	.st0{display:none;}
	.st1{display:inline;fill:none;stroke:#000000;stroke-width:0.1;stroke-miterlimit:10;}
	.st2{fill:#3C3C3B;}
</style>
<g class="st0">
	<rect class="st1" width="200" height="200"/>
	<circle class="st1" cx="100" cy="100" r="100"/>
	<line class="st1" x1="0" y1="0" x2="200" y2="200"/>
	<line class="st1" x1="200" y1="0" x2="0" y2="200"/>
	<rect y="50" class="st1" width="200" height="100"/>
	<line class="st1" x1="0" y1="100" x2="200" y2="100"/>
	<rect x="50" class="st1" width="100" height="200"/>
	<line class="st1" x1="100" y1="0" x2="100" y2="200"/>
	<rect x="29.3" y="29.3" class="st1" width="141.4" height="141.4"/>
	<circle class="st1" cx="100" cy="100" r="70.7"/>
</g>
<path class="st2" d="M113.8,37.1H92.2c-1.8,0-3.2-1.4-3.2-3.2V16.2c0-1.8,1.4-3.2,3.2-3.2h21.6c1.8,0,3.2,1.4,3.2,3.2v17.7
	C117,35.7,115.6,37.1,113.8,37.1z"/>
<path class="st2" d="M113.8,187.3H92.2c-1.8,0-3.2-1.4-3.2-3.2v-17.7c0-1.8,1.4-3.2,3.2-3.2h21.6c1.8,0,3.2,1.4,3.2,3.2v17.7
	C117,185.8,115.6,187.3,113.8,187.3z"/>
<path class="st2" d="M113.8,110.9H92.2c-1.8,0-3.2-1.4-3.2-3.2V90c0-1.8,1.4-3.2,3.2-3.2h21.6c1.8,0,3.2,1.4,3.2,3.2v17.7
	C117,109.5,115.6,110.9,113.8,110.9z"/>
</svg>
