<?xml version="1.0" encoding="utf-8"?>
<!-- Generator: Adobe Illustrator 24.0.0, SVG Export Plug-In . SVG Version: 6.00 Build 0)  -->
<svg version="1.1" id="Calque_1" xmlns="http://www.w3.org/2000/svg" xmlns:xlink="http://www.w3.org/1999/xlink" x="0px" y="0px"
	 viewBox="0 0 200 200" style="enable-background:new 0 0 200 200;" xml:space="preserve">
<style type="text/css">
	.st0{display:none;}
	.st1{display:inline;fill:none;stroke:#000000;stroke-width:0.1;stroke-miterlimit:10;}
	.st2{fill:#3C3C3B;}
</style>
<g class="st0">
	<rect class="st1" width="200" height="200"/>
	<circle class="st1" cx="100" cy="100" r="100"/>
	<line class="st1" x1="0" y1="0" x2="200" y2="200"/>
	<line class="st1" x1="200" y1="0" x2="0" y2="200"/>
	<rect y="50" class="st1" width="200" height="100"/>
	<line class="st1" x1="0" y1="100" x2="200" y2="100"/>
	<rect x="50" class="st1" width="100" height="200"/>
	<line class="st1" x1="100" y1="0" x2="100" y2="200"/>
	<rect x="29.3" y="29.3" class="st1" width="141.4" height="141.4"/>
	<circle class="st1" cx="100" cy="100" r="70.7"/>
</g>
<g>
	<path class="st2" d="M181.4,125.7l-0.1,0.2C167,173.7,116.5,201,68.7,186.8C20.9,172.6-6.5,122,7.7,74.2S72.5-1,120.3,13.2
		c23.9,7.1,42.7,23.2,53.7,43.6c0,0.1,0.1,0.1,0.1,0.2l0.2-0.1c0-0.1-0.1-0.2-0.1-0.2c-11.1-20.4-29.9-36.6-53.9-43.7
		C72.4-1.3,21.8,26.1,7.5,74.1c-14.3,48,13.2,98.6,61.2,112.9c48,14.3,98.6-13.1,112.9-61l0.1-0.2L181.4,125.7z"/>
	<path class="st2" d="M181.3,125.9C167,173.7,116.5,201,68.7,186.8C20.9,172.6-6.5,122,7.7,74.2S72.5-1,120.3,13.2
		c23.9,7.1,42.7,23.2,53.7,43.6l-17.3,9.4c-9-16.6-23.9-28.7-42-34c-18.1-5.4-37.3-3.4-53.9,5.6S32.1,61.7,26.7,79.8
		c-5.4,18.1-3.4,37.3,5.6,53.9s23.9,28.8,42.1,34.1s37.3,3.4,53.9-5.6c16.6-9,28.7-23.9,34.1-42L181.3,125.9z"/>
</g>
<polygon class="st2" points="170.6,97.5 118.6,62.8 199.5,38.5 "/>
</svg>
